PathFileType	4	(X/Y/Z)	2_2_13_p0_0-569.trc
DataRate	CameraRate	NumFrames	NumMarkers	Units	OrigDataRate	OrigDataStartFrame	OrigNumFrames
59.0	59.0	6	27	m	59.0	498	570
Frame#	Time	RHip			RKnee			RAnkle			RBigToe			RSmallToe			RHeel			LHip			LKnee			LAnkle			LBigToe			LSmallToe			LHeel			Neck			Head			Nose			RShoulder			RElbow			RWrist			RThumb			RIndex			RPinky			LShoulder			LElbow			LWrist			LThumb			LIndex			LPinky			
		X1	Y1	Z1	X2	Y2	Z2	X3	Y3	Z3	X4	Y4	Z4	X5	Y5	Z5	X6	Y6	Z6	X7	Y7	Z7	X8	Y8	Z8	X9	Y9	Z9	X10	Y10	Z10	X11	Y11	Z11	X12	Y12	Z12	X13	Y13	Z13	X14	Y14	Z14	X15	Y15	Z15	X16	Y16	Z16	X17	Y17	Z17	X18	Y18	Z18	X19	Y19	Z19	X20	Y20	Z20	X21	Y21	Z21	X22	Y22	Z22	X23	Y23	Z23	X24	Y24	Z24	X25	Y25	Z25	X26	Y26	Z26	X27	Y27	Z27	
498	8.440677966101696	0.3294253474254723	0.7027002070925296	0.9493617260629637	0.3063295671137031	0.7909945840129842	1.3871415803265141	0.2885451145293281	0.9099542434682286	1.8106602873580415	0.29776582277912095	0.6693366735776527	1.878548624597075	0.356009844352857	0.7727524878766255	1.901047911812071	0.27516766081684385	0.928970126055558	1.8430658109025777	0.13602179741048084	0.653996585910746	0.9715695753998778	0.12122528029385857	0.7651236093617777	1.3835879461754543	0.13203246128747553	0.9018964325051212	1.8025246492773748	0.1247030746567952	0.7171135950897124	1.907960583913119	0.08647302175074265	0.7155806085655808	1.8756089732454957	0.12888402302733726	0.9811791848144877	1.867032129781231	0.2543075250450507	0.3374390812347246	0.6196681231558109	0.24119207198918605	0.012573186306194202	0.42848700731008454	0.2547000434651484	0.08472356772365953	0.5979054301562572	0.39483033897441056	0.3520816836984014	0.6069697969655616	0.3882912991740153	0.39938002818828694	0.8531939947679439	0.2470586501900625	0.1835122087791366	1.0079618763505445	0.16660933863631566	0.1561590720031048	1.0598916713979103	0.16224476878844443	0.12681982691540966	1.0699711699200891	0.17340374184413412	0.1612154034835578	1.0922783110764753	0.07910822494835336	0.3365991556899837	0.6239534093203861	0.07921272296365825	0.3898389029804462	0.8767075332943814	0.10979028721903515	0.19769703721462958	1.0843713816135798	0.1243561914833342	0.09214967247099239	1.1272191020956792	0.11868367743770589	0.06211218070087375	1.1518398583704341	0.13910682604821636	0.14095269336248456	1.1721057638293684
499	8.457627118644067	0.3294038716962395	0.7027731078094287	0.9493323658222147	0.3061191817314896	0.7918970174676736	1.3876699791090923	0.2885285722988003	0.9099381932326714	1.8107210046139028	0.29773395180829465	0.6693950495494403	1.878503002145215	0.3553830379222466	0.7738034610660187	1.897271076573695	0.27409216134717695	0.9305823561367357	1.8479427794823395	0.13516689645923835	0.6553644583806646	0.9719706527253277	0.12153777312246332	0.7643196799336727	1.3875195342090527	0.1331186855239513	0.9000237668143253	1.7981266825943827	0.12466895754294902	0.7173353970365306	1.9080513045433423	0.0804586700339446	0.7310049177930369	1.88065329567425	0.12888771464972215	0.9813519013925855	1.8672140466754419	0.2491583307221439	0.34714550614026557	0.6152758828295365	0.24137052394246136	0.012187269283731386	0.43158802060438634	0.25804930492241573	0.08621279662061962	0.597132616998805	0.39447370946115723	0.3512991750443591	0.6037032155568424	0.38398020697755064	0.39804418199293595	0.8530224922449904	0.24311505156372823	0.18205122086929884	1.008035977111994	0.163870871509032	0.1540208597563852	1.0618555217678274	0.16063847125701736	0.12477583572596372	1.068511747497537	0.17280146400799104	0.16114777557075796	1.0919779662704612	0.07888007032711393	0.3369569575356328	0.6238852374232042	0.07884671162779637	0.39026825485169675	0.8768900135246144	0.10478805149132733	0.2080693495450791	1.0821380537229928	0.12418284687710013	0.09268378559054012	1.1199098760839015	0.11438112932735015	0.07091996142904047	1.1496249094710302	0.13820934641770777	0.12984215481105532	1.167384076487948
500	8.474576271186441	0.32368863592594926	0.7004722472927871	0.9447532251029779	0.30645423260669397	0.7916384073472161	1.3875207753844585	0.28854396861896175	0.9099218124815142	1.8107500319511396	0.2977258496259715	0.6693978844931773	1.8785833269980066	0.35545660954617003	0.7739997568191219	1.8975571976375663	0.27405698955026125	0.930510049472238	1.847969250853218	0.13413981436857672	0.6568285450821565	0.9682206469326406	0.12078329789561497	0.7659076017608676	1.3918330779132282	0.12672684493547418	0.9172266624798618	1.8032360944049022	0.12465348930032925	0.7174749625495427	1.9080669187514872	0.08041707129845022	0.7310944963755859	1.8806557833168318	0.12886103407502653	0.9812133546895982	1.8668152687298982	0.24882988347381152	0.3446996819573078	0.6079129288277842	0.24549314834439598	0.0007486131689796401	0.42699210334813836	0.2540303784007747	0.08254019988110874	0.5843922489513944	0.392391811974042	0.3762007731914737	0.6016418333202594	0.38834642651758217	0.3993179760081582	0.8523527262503967	0.2479377582846736	0.18251650947955508	1.0038805339466161	0.16405439894523485	0.1454560466638889	1.0557180196843223	0.16049170951501607	0.12372698831663206	1.062240217587683	0.1763620589977408	0.16241940813642408	1.0881665171411656	0.08058636274835436	0.3478422622921477	0.6195356564617077	0.07874281303327432	0.3899722065882339	0.8766544098840762	0.10519467387581057	0.2075857706621159	1.0786195208544542	0.12161998659332646	0.07067873372862228	1.1145862104498736	0.11298613387147108	0.06151382477748613	1.1480817728078552	0.1410357686638943	0.13876382550741312	1.160631966990168
501	8.491525423728813	0.32327702726543117	0.7012824063499092	0.9487629577428084	0.3063817790701156	0.7909302478932596	1.3869850324409774	0.2885122852917571	0.9099328681601785	1.8106638613148929	0.29762606558638566	0.6692724053776268	1.8784978340496938	0.3523910251254812	0.7591841059083242	1.8931694478575292	0.2755900404094046	0.9334928811002218	1.8449237865403234	0.13438958852193988	0.6563144914608086	0.9720557499843554	0.1270042446006409	0.7503137086566799	1.3889748571568385	0.12726949913496255	0.9213802496828208	1.8087815654821195	0.1247212112170192	0.7172714211648775	1.9079530629962502	0.08042555997213041	0.7310239933190009	1.8808352171371632	0.12872151352678318	0.9816967113668368	1.8673474595930895	0.24874976123437906	0.3436884838044345	0.6044747393766261	0.24762834560013908	0.010863351763561046	0.42492098442358345	0.25786670277241514	0.08346255085033433	0.5873030233185955	0.38980846189056995	0.3643310459009141	0.5994297792728434	0.3880646572767528	0.39733668947151	0.8480929719763466	0.25604921882533793	0.2058130776922234	1.0037264674690127	0.1672102063850385	0.15521720984316895	1.0458882228653794	0.15964815125644055	0.12296764594058456	1.054777836685924	0.1862200480785083	0.16030000242994488	1.0773678030802933	0.07923248833381853	0.33569388886696533	0.6204604482068303	0.07642049983653137	0.37775014982101024	0.8731472054199015	0.10409511352612953	0.20780635625531527	1.0717793131332325	0.12024891162229612	0.07700820637849916	1.1139823271222011	0.11262293520966316	0.061425455110293174	1.147511957662803	0.13898001987584874	0.1279797237324766	1.1598756225720817
502	8.508474576271187	0.32847043569652357	0.7047527666261445	0.9572549191751244	0.3069295341530493	0.7896489380040922	1.3833054562539489	0.28848542296013924	0.9098672937779045	1.8106789742082265	0.29763096801528793	0.6694128975665555	1.878631079502531	0.35238429269901356	0.7594485912534488	1.8932762363581328	0.2751222598770162	0.9285886574678648	1.8431648845550803	0.13503273245842834	0.659009666673186	0.9770570727656551	0.12901585191681714	0.7662156729838457	1.3912501852564487	0.1267132307218789	0.9173167398488453	1.8033245055604354	0.13091951497495383	0.7021766941940173	1.9026428863763267	0.08646372767345309	0.7156365943048205	1.8756933520578334	0.12865270379462496	0.9817082329318506	1.8678530568757168	0.24893601448336597	0.3402883534078448	0.597722202983822	0.24655445422585504	0.03747072376587608	0.4107165582392601	0.2550473523302587	0.07153182362412554	0.5786874873285974	0.3939325821712832	0.3660719648744655	0.5991287172760968	0.3945583532901125	0.40880623752286877	0.8435393127790709	0.2598434818143558	0.2258606615405455	0.9973916092923347	0.16913066464476298	0.16680424808717997	1.0430802823457994	0.1612804894103108	0.13333112713305187	1.052042841789483	0.18646173539118782	0.19954226441157558	1.0764337032900895	0.07952423165298463	0.334894486462715	0.6171642022509078	0.07690401766929199	0.3770335079963388	0.8764442350818469	0.09826286883974025	0.19274822114122903	1.0670358455776756	0.11872668150035318	0.06770201436869418	1.1130591759940272	0.10939082368523938	0.059343941700124817	1.146668158021261	0.1319360372667811	0.12432865051903516	1.1591160356636532
503	8.525423728813559	0.3285011171232608	0.6861871724956774	0.9566230729215682	0.3065183002811094	0.790648363109689	1.3868235808959035	0.28848920946274165	0.9098880519402245	1.810673577014922	0.29766445340755276	0.6694637717675604	1.8785239990328273	0.3553367961718161	0.773848286338023	1.8972926001584682	0.275122329157059	0.9286690919085218	1.8432253015067095	0.13402359222004506	0.6569403358071823	0.9804599670532831	0.12814856906087027	0.76763715982591	1.3955525289676458	0.12625542735492742	0.9228618051224124	1.8128964382741963	0.12473232542452858	0.7173572327781428	1.9080515002060292	0.0864487759764928	0.715680305885102	1.8757285792899505	0.12864427974865036	0.9816742850150809	1.8679253986898514	0.24479293764322618	0.3358592862719711	0.5907656878511952	0.25074259406186095	0.03942938293677565	0.410234379191815	0.25980474132205666	0.09133076299588298	0.5728760213382507	0.3940695799515741	0.36392256066313977	0.59232735828558	0.40757512939799806	0.43306576566967725	0.8312869996032826	0.2698037085741144	0.2389927045447019	0.9865275295726776	0.17337424931606765	0.1854836780434751	1.0300041220619596	0.1649808434019038	0.13275646448329634	1.0387155789504978	0.19680508271596533	0.2225287354692166	1.0701271945988804	0.07906147459998782	0.3361265287770308	0.6201069925406897	0.06744850797529638	0.3829683737405227	0.8693572470101819	0.08956396531295271	0.20143170080431547	1.0614230303585315	0.11388216927824049	0.07286041870257501	1.1041380797988518	0.1085184878267829	0.05768474880112147	1.1396373675067877	0.12442891588075118	0.10105352848225621	1.15713240391232
